<svg version="1.1" id="Layer_1" xmlns="http://www.w3.org/2000/svg" xmlns:xlink="http://www.w3.org/1999/xlink" x="0px" y="0px"
	 width="100%" viewBox="0 0 992 992" enable-background="new 0 0 992 992" xml:space="preserve">
<path fill="#000000" opacity="1.000000" stroke="none" 
	d="
M418.999878,723.419006 
	C401.175385,723.642822 383.843567,722.915039 366.522247,723.880066 
	C364.058929,724.017273 361.562531,723.470154 359.076660,723.317017 
	C356.580078,723.163147 355.217194,721.960632 354.579773,719.480896 
	C353.747925,716.244873 353.025940,713.066650 353.040131,709.669495 
	C353.103485,694.505920 352.732574,679.336121 353.038971,664.179016 
	C353.546783,639.061096 348.349426,615.289856 337.231445,592.800110 
	C332.257294,582.738281 325.568329,573.740601 318.417511,565.231323 
	C303.073944,546.972961 290.746460,526.996399 281.842468,504.894775 
	C276.262207,491.043457 269.804504,477.539734 267.204224,462.597626 
	C264.922272,449.484589 263.738556,436.306854 262.575989,423.068298 
	C261.329742,408.877228 262.147430,394.800964 262.822021,380.686157 
	C263.349152,369.656372 266.367950,358.995148 269.279449,348.484283 
	C273.708374,332.495300 278.144318,316.423035 286.218506,301.672607 
	C296.804443,282.333710 308.714996,264.034149 323.974884,247.927048 
	C337.056091,234.119568 350.492920,220.811676 366.511261,210.423233 
	C376.132080,204.183792 386.104340,198.524704 396.277191,193.200119 
	C407.850220,187.142639 420.176239,183.073181 432.680054,179.785126 
	C443.707703,176.885254 454.951599,174.703796 466.186310,172.539490 
	C487.428436,168.447266 508.637115,169.390244 529.758057,172.178558 
	C550.007935,174.851898 569.714539,179.812180 588.948486,187.247833 
	C625.527222,201.388794 655.974182,223.870728 681.660889,252.978821 
	C699.285767,272.951294 712.664368,295.682617 722.972473,320.331390 
	C730.235657,337.699188 734.678650,355.760590 736.839355,374.230408 
	C739.467712,396.698853 740.253967,419.280579 737.652954,441.969269 
	C735.220764,463.185608 729.366333,483.331543 721.295044,502.887573 
	C714.541077,519.251831 704.328003,533.619690 693.960999,547.894592 
	C681.960144,564.419250 668.812439,580.131042 660.051575,598.929321 
	C651.847961,616.532043 647.049744,634.647766 645.821472,654.069275 
	C644.576355,673.756897 646.878113,693.348511 646.065857,712.994080 
	C645.706238,721.691589 643.624695,723.577087 634.945374,723.541260 
	C600.620483,723.399475 566.295349,723.169556 531.968323,723.701843 
	C514.481628,723.972900 496.984192,723.492371 479.491333,723.440796 
	C459.494324,723.381897 439.497040,723.422058 418.999878,723.419006 
M642.884338,321.617676 
	C633.450989,307.882294 623.271912,294.846466 610.652527,283.753967 
	C596.365173,271.195282 580.549988,261.445953 562.770569,254.665573 
	C545.203674,247.966263 527.015686,244.404221 508.351562,243.311615 
	C500.242523,242.836899 492.079498,242.579437 483.925049,243.616135 
	C468.682617,245.553940 454.125366,250.029449 439.525238,254.582092 
	C429.577118,257.684143 420.277863,262.122284 411.663483,267.638916 
	C389.811005,281.633240 371.832367,299.468719 358.290314,321.938873 
	C347.032776,340.618378 339.692383,360.564209 335.752838,381.800171 
	C333.562225,393.608673 334.223328,405.689667 334.213959,417.679596 
	C334.199677,435.931366 338.841736,453.290710 345.162048,470.096069 
	C352.178009,488.751251 363.621063,505.028473 375.440948,520.951050 
	C386.044464,535.235107 396.747711,549.397400 404.463501,565.608582 
	C413.241455,584.051453 419.605743,603.225708 422.920135,623.331116 
	C424.455322,632.643738 424.627747,642.173035 425.848877,651.547974 
	C426.839874,659.156128 427.770142,659.696777 435.505188,659.700562 
	C474.990021,659.719849 514.474854,659.719482 553.959717,659.721558 
	C558.457886,659.721802 562.956055,659.680054 567.454224,659.683899 
	C570.696411,659.686646 572.649109,658.021606 572.605652,654.869019 
	C572.492554,646.652893 574.487671,638.720459 575.377014,630.663147 
	C576.591736,619.658386 579.078247,609.020325 582.334900,598.590149 
	C591.266541,569.984680 606.014709,544.493652 624.649963,521.098022 
	C634.891235,508.240570 645.010925,495.244812 651.854248,480.081207 
	C656.385193,470.041260 659.303711,459.529327 662.230713,448.942749 
	C665.991089,435.341675 667.597351,421.434814 667.372925,407.570465 
	C667.170532,395.061981 664.761658,382.607849 662.192078,370.192932 
	C658.624146,352.953979 652.147095,337.202179 642.884338,321.617676 
z"/>
<path fill="#000000" opacity="1.000000" stroke="none" 
	d="
M455.999939,831.363525 
	C433.340271,831.361145 411.180573,831.374023 389.020966,831.348389 
	C379.969910,831.337952 378.835266,830.289673 378.749390,821.381470 
	C378.601624,806.055725 378.524719,790.728821 378.529816,775.402405 
	C378.532288,767.995605 380.873871,766.079651 389.437866,766.080627 
	C456.416565,766.088257 523.395264,766.094238 590.373962,766.127747 
	C597.363647,766.131226 604.353210,766.308777 611.342834,766.408447 
	C616.712402,766.485046 620.105591,769.525635 620.167297,775.143555 
	C620.337524,790.634644 620.408447,806.131531 620.160889,821.620422 
	C620.040405,829.156189 617.512207,831.306946 609.951355,831.313599 
	C558.800903,831.358459 507.650421,831.352600 455.999939,831.363525 
z"/>
</svg>